<svg width="18" height="24" viewBox="0 0 18 24" fill="none" xmlns="http://www.w3.org/2000/svg">
<path d="M10.5 6.375V0H1.125C0.501562 0 0 0.501562 0 1.125V22.875C0 23.4984 0.501562 24 1.125 24H16.875C17.4984 24 18 23.4984 18 22.875V7.5H11.625C11.0063 7.5 10.5 6.99375 10.5 6.375ZM18 5.71406V6H12V0H12.2859C12.5859 0 12.8719 0.117188 13.0828 0.328125L17.6719 4.92188C17.8828 5.13281 18 5.41875 18 5.71406Z" fill="#FF0000"/>
<path d="M6.39734 12.6679C6.39734 12.9526 6.33201 13.2139 6.20134 13.4519C6.07068 13.6853 5.87001 13.8743 5.59934 14.0189C5.32868 14.1636 4.99268 14.2359 4.59134 14.2359H3.84934V15.9999H2.65234V11.0859H4.59134C4.98334 11.0859 5.31468 11.1536 5.58534 11.2889C5.85601 11.4243 6.05901 11.6109 6.19434 11.8489C6.32968 12.0869 6.39734 12.3599 6.39734 12.6679ZM4.50034 13.2839C4.72901 13.2839 4.89934 13.2303 5.01134 13.1229C5.12334 13.0156 5.17934 12.8639 5.17934 12.6679C5.17934 12.4719 5.12334 12.3203 5.01134 12.2129C4.89934 12.1056 4.72901 12.0519 4.50034 12.0519H3.84934V13.2839H4.50034ZM9.00151 11.0859C9.51951 11.0859 9.97217 11.1886 10.3595 11.3939C10.7468 11.5993 11.0455 11.8886 11.2555 12.2619C11.4702 12.6306 11.5775 13.0576 11.5775 13.5429C11.5775 14.0236 11.4702 14.4506 11.2555 14.8239C11.0455 15.1973 10.7445 15.4866 10.3525 15.6919C9.96517 15.8973 9.51484 15.9999 9.00151 15.9999H7.16051V11.0859H9.00151ZM8.92451 14.9639C9.37717 14.9639 9.72951 14.8403 9.98151 14.5929C10.2335 14.3456 10.3595 13.9956 10.3595 13.5429C10.3595 13.0903 10.2335 12.7379 9.98151 12.4859C9.72951 12.2339 9.37717 12.1079 8.92451 12.1079H8.35751V14.9639H8.92451ZM15.5854 11.0859V12.0449H13.5834V13.0809H15.0814V14.0119H13.5834V15.9999H12.3864V11.0859H15.5854Z" fill="white"/>
</svg>
