<svg width="101" height="36" viewBox="0 0 101 36" fill="none" xmlns="http://www.w3.org/2000/svg">
<path fill-rule="evenodd" clip-rule="evenodd" d="M41.2286 20.8914C41.627 21.5926 42.3857 21.9527 43.5048 21.9527C44.6239 21.9527 45.3826 21.5926 45.7809 20.8914C46.1793 20.1902 46.3879 18.9962 46.3879 17.3285C46.3879 15.6608 46.1793 14.4478 45.762 13.6898C45.3447 12.9317 44.586 12.5527 43.5048 12.5527C42.4047 12.5527 41.6459 12.9317 41.2476 13.6898C40.8303 14.4478 40.6217 15.6608 40.6217 17.3285C40.6217 18.9962 40.8303 20.1713 41.2286 20.8914ZM46.7673 23.8668C46.7293 23.8668 46.6914 23.8479 46.6535 23.8479C46.5586 23.8479 46.369 23.8858 46.3121 23.9047C45.5344 24.208 44.6049 24.3785 43.4858 24.3785C41.3614 24.3785 39.863 23.81 38.9904 22.6729C38.1179 21.5358 37.6816 19.7354 37.6816 17.3095C37.6816 14.8837 38.1179 13.0644 38.9904 11.8894C39.863 10.7144 41.3614 10.1079 43.4858 10.1079C45.6102 10.1079 47.1087 10.6954 47.9812 11.8894C48.8538 13.0644 49.29 14.8837 49.29 17.3095C49.29 19.0721 49.1193 20.3418 48.6641 21.4221C48.6451 21.46 48.6261 21.4979 48.6261 21.5358C48.5313 22.2559 49.5176 22.7676 49.7073 23.0898L49.9349 23.2983C50.1815 23.5067 50.2005 23.8668 49.9918 24.1132L49.0814 25.1555C48.8727 25.4019 48.5123 25.4209 48.2657 25.2124L46.7673 23.8668Z" fill="#202020"/>
<path fill-rule="evenodd" clip-rule="evenodd" d="M57.1214 12.4391H57.1024C56.8369 12.4391 56.5903 12.6286 56.5334 12.8939L55.2436 19.0153H58.9613L57.6715 12.8939C57.6335 12.6286 57.3869 12.4391 57.1214 12.4391ZM59.0751 21.4601H55.1487C54.9021 21.4601 54.6935 21.6306 54.6556 21.877L54.2952 23.5637C54.2383 23.8101 54.0296 23.9806 53.802 23.9806H52.0949C51.7724 23.9806 51.5258 23.6774 51.6017 23.3363L54.3141 11.0366C54.4279 10.506 54.9021 10.127 55.4332 10.127H58.8095C59.3406 10.127 59.8148 10.506 59.9286 11.0366L62.6411 23.3363C62.7169 23.6585 62.4703 23.9806 62.1479 23.9806H60.4408C60.1942 23.9806 59.9855 23.8101 59.9476 23.5637L59.5872 21.877C59.5303 21.6306 59.3217 21.4601 59.0751 21.4601Z" fill="#202020"/>
<path fill-rule="evenodd" clip-rule="evenodd" d="M70.8405 16.9117C71.4855 16.9117 71.9786 16.7032 72.32 16.3052C72.6615 15.9072 72.8322 15.3576 72.8322 14.6943C72.8322 14.012 72.6615 13.4814 72.3011 13.1024C71.9407 12.7233 71.4475 12.5149 70.8026 12.5149H68.204V16.9117H70.8405ZM65.3398 10.6955C65.3398 10.3733 65.6054 10.127 65.9278 10.127H70.8026C74.103 10.127 75.7532 11.6431 75.7532 14.6943C75.7532 16.3431 75.1842 17.5939 74.0461 18.4467C73.8375 18.5984 73.7616 18.8637 73.8564 19.11L75.4118 23.2226C75.5446 23.6016 75.279 23.9996 74.8617 23.9996H73.0029C72.7563 23.9996 72.5287 23.848 72.4528 23.6205L71.0871 19.7544C71.0113 19.527 70.7836 19.3754 70.5371 19.3754H68.792C68.4696 19.3754 68.204 19.6407 68.204 19.9439V23.431C68.204 23.7532 67.9385 23.9996 67.616 23.9996H65.9278C65.6054 23.9996 65.3398 23.7343 65.3398 23.431V10.6955Z" fill="#202020"/>
<path fill-rule="evenodd" clip-rule="evenodd" d="M81.3477 12.8037V16.0444H85.7103C86.0328 16.0444 86.2983 16.3097 86.2983 16.6319V17.8638C86.2983 18.1859 86.0328 18.4513 85.7103 18.4513H81.3477V21.7678H86.9432C87.2657 21.7678 87.5312 22.0331 87.5312 22.3553V23.6251C87.5312 23.9472 87.2657 24.2126 86.9432 24.2126H79.1095C78.787 24.2126 78.5215 23.9472 78.5215 23.6251V10.9464C78.5215 10.6242 78.787 10.3589 79.1095 10.3589H86.9432C87.2657 10.3589 87.5312 10.6242 87.5312 10.9464V12.2162C87.5312 12.5383 87.2657 12.8037 86.9432 12.8037H81.3477Z" fill="#202020"/>
<path fill-rule="evenodd" clip-rule="evenodd" d="M94.4716 12.6905H94.4526C94.1871 12.6905 93.9405 12.88 93.8836 13.1454L92.5937 19.2668H96.3115L95.0216 13.1454C94.9837 12.88 94.7561 12.6905 94.4716 12.6905ZM96.3873 21.7115H92.5368C92.2713 21.7115 92.0437 21.901 91.9868 22.1664L91.6453 23.7773C91.5884 24.0426 91.3608 24.2321 91.0953 24.2321H89.483C89.1226 24.2321 88.8571 23.891 88.9329 23.5309L91.6453 11.2881C91.7592 10.7575 92.2334 10.3784 92.7645 10.3784H96.1597C96.6908 10.3784 97.165 10.7575 97.2788 11.2881L99.9913 23.5309C100.067 23.891 99.8016 24.2321 99.4412 24.2321H97.8289C97.5634 24.2321 97.3357 24.0426 97.2788 23.7773L96.9374 22.1664C96.8805 21.901 96.6529 21.7115 96.3873 21.7115Z" fill="#202020"/>
<path fill-rule="evenodd" clip-rule="evenodd" d="M15.99 0.385742C11.267 0.385742 5.4438 1.01115 2.23822 5.88173C0 9.27408 0 13.3297 0 17.9919C0 22.654 0 26.7096 2.23822 30.1209C5.4438 34.9915 11.267 35.6169 15.99 35.6169C20.713 35.6169 26.5551 34.9915 29.7417 30.1209C31.9799 26.7096 31.9799 22.6729 31.9799 17.9919C31.9799 13.3108 31.9799 9.27408 29.7417 5.86278C26.5551 1.01115 20.732 0.385742 15.99 0.385742ZM15.99 3.24745C20.2388 3.24745 24.9049 3.74019 27.3328 7.43577C29.1158 10.1497 29.1158 13.5951 29.1158 17.9919C29.1158 22.3886 29.1158 25.8568 27.3328 28.5479C24.9049 32.2435 20.2388 32.7363 15.99 32.7363C11.7412 32.7363 7.07504 32.2435 4.64715 28.5479C2.86416 25.8568 2.86416 22.3886 2.86416 17.9919C2.86416 13.5951 2.86416 10.1269 4.64715 7.43577C7.07504 3.74019 11.7601 3.24745 15.99 3.24745ZM20.7889 17.158C20.7889 14.8269 20.8078 13.1592 20.087 12.439C19.499 11.8705 18.1523 11.5862 15.971 11.5862C13.8087 11.5862 12.4619 11.8515 11.8929 12.4201C10.7443 13.5677 10.7443 22.416 11.8929 23.5636C12.4619 24.1322 13.8087 24.3975 15.971 24.3975C18.1523 24.3975 19.499 24.1132 20.087 23.5447C20.8078 22.8435 20.8078 21.1568 20.7889 18.8257C20.7889 18.5604 20.7889 18.2761 20.7889 17.9919C20.7889 17.7076 20.7889 17.4233 20.7889 17.158ZM25.9292 25.1366C26.4034 23.2794 26.4034 20.9673 26.4034 18.0108C26.4034 9.63416 26.3275 5.76802 16.0089 5.76802C5.69038 5.76802 5.61451 9.65311 5.61451 18.0108C5.61451 19.8491 5.61451 21.479 5.72832 22.8814C6.14561 27.8846 7.94757 30.2536 16.0089 30.2536C18.2472 30.2536 20.0112 30.0641 21.3958 29.704C22.2115 29.4766 22.477 28.4721 21.889 27.8846L21.7373 27.733C21.2251 27.2213 20.4854 26.7096 19.8025 26.8991C18.7972 27.1834 17.5453 27.335 15.99 27.335C12.9551 27.335 11.0773 26.8044 9.90127 25.6294C8.36486 24.0753 8.36486 22.0854 8.38383 19.1669C8.38383 18.8636 8.38383 18.5415 8.38383 18.2193C8.38383 17.8971 8.38383 17.5749 8.38383 17.2717C8.34589 14.2963 8.34589 12.0031 9.8823 10.4301C11.0583 9.23618 12.9361 8.72448 15.971 8.72448C19.0248 8.72448 20.9027 9.25513 22.0787 10.4491C23.6341 12.0221 23.6341 14.3721 23.6151 17.3285C23.6151 17.6128 23.6151 17.8781 23.6151 18.1814C23.6151 18.4656 23.6151 18.7499 23.6151 19.0342C23.6151 20.7967 23.6341 22.3318 23.3116 23.6205C23.1599 24.2649 23.3306 24.9282 23.7858 25.383L24.1083 25.7052C24.6963 26.2927 25.7205 25.9326 25.9292 25.1366Z" fill="#FF3333"/>
</svg>
