<svg width="52" height="56" viewBox="0 0 52 56" fill="none" xmlns="http://www.w3.org/2000/svg">
<path d="M50.5539 46.5043L50.5537 46.5046C50.4761 46.6153 50.2169 46.9819 50.0586 47.1816C49.3272 48.1016 47.627 50.2394 45.2645 52.1247C42.2383 54.5399 39.1433 55.75 36.0625 55.75C32.9817 55.75 29.8867 54.5399 26.8605 52.1247C24.498 50.2394 22.7979 48.1012 22.0668 47.1816C21.9082 46.9821 21.6491 46.6152 21.571 46.5042C21.1015 45.836 21.1015 44.9449 21.571 44.2766C21.6491 44.1656 21.9082 43.7987 22.0668 43.5992C22.7978 42.6797 24.498 40.5418 26.8605 38.6565C29.8867 36.2414 32.9817 35.0312 36.0625 35.0312C39.1433 35.0312 42.2383 36.2414 45.2645 38.6565C47.627 40.5418 49.3271 42.6801 50.0582 43.5997C50.2168 43.7991 50.4758 44.1659 50.5539 44.277C51.0235 44.9453 51.0235 45.836 50.5539 46.5043ZM25.7381 45.2298L25.6029 45.3906L25.7381 45.5515C29.2331 49.7093 32.7023 51.875 36.0625 51.875C39.4227 51.875 42.8919 49.7098 46.3869 45.5515L46.1955 45.3906L46.3869 45.2298C42.8919 41.0719 39.4227 38.9062 36.0625 38.9062C32.7027 38.9062 29.2331 41.0715 25.7381 45.2298ZM21.2656 53.8125C21.2656 54.8827 20.3983 55.75 19.3281 55.75H9.70312C5.01631 55.75 1.20312 51.9368 1.20312 47.25V8.75C1.20312 4.06318 5.01631 0.25 9.70312 0.25H36.5974C41.2838 0.25 45.0974 4.06319 45.0974 8.75V29.6406C45.0974 30.7108 44.2297 31.5781 43.1599 31.5781C42.0897 31.5781 41.2224 30.7108 41.2224 29.6406V8.75C41.2224 6.1997 39.1477 4.125 36.5974 4.125H9.70312C7.15282 4.125 5.07812 6.1997 5.07812 8.75V47.25C5.07812 49.8003 7.15282 51.875 9.70312 51.875H19.3281C20.3983 51.875 21.2656 52.7423 21.2656 53.8125ZM11.8787 13.375H34.4099C35.4797 13.375 36.3474 14.2424 36.3474 15.3125C36.3474 16.3826 35.4797 17.25 34.4099 17.25H11.8787C10.8085 17.25 9.94116 16.3827 9.94116 15.3125C9.94116 14.2423 10.8085 13.375 11.8787 13.375ZM34.4099 22.125C35.4797 22.125 36.3474 22.9924 36.3474 24.0625C36.3474 25.1326 35.4797 26 34.4099 26H11.8787C10.8085 26 9.94116 25.1327 9.94116 24.0625C9.94116 22.9923 10.8085 22.125 11.8787 22.125H34.4099ZM9.94116 32.8125C9.94116 31.7423 10.8085 30.875 11.8787 30.875H23.375C24.4452 30.875 25.3125 31.7423 25.3125 32.8125C25.3125 33.8827 24.4452 34.75 23.375 34.75H11.8787C10.8085 34.75 9.94116 33.8827 9.94116 32.8125ZM32.2656 45.3906C32.2656 43.2331 34.0144 41.4844 36.1719 41.4844C38.3294 41.4844 40.0781 43.2331 40.0781 45.3906C40.0781 47.5481 38.3294 49.2969 36.1719 49.2969C34.0144 49.2969 32.2656 47.5481 32.2656 45.3906Z" fill="#FF3333" stroke="white" stroke-width="0.5"/>
</svg>
