<svg width="24" height="14" viewBox="0 0 24 14" fill="none" xmlns="http://www.w3.org/2000/svg">
<path fill-rule="evenodd" clip-rule="evenodd" d="M17.3939 1.70711C17.0592 1.31658 17.0592 0.683418 17.3939 0.292893C17.7286 -0.097631 18.2714 -0.097631 18.6061 0.292893L23.7489 6.29289C24.0837 6.68342 24.0837 7.31658 23.7489 7.70711L18.6061 13.7071C18.2714 14.0976 17.7286 14.0976 17.3939 13.7071C17.0592 13.3166 17.0592 12.6834 17.3939 12.2929L21.0735 8L1 8C0.447715 8 9.20935e-07 7.55228 8.53589e-07 7C7.86242e-07 6.44771 0.447716 6 1 6L21.0735 6L17.3939 1.70711Z" fill="#FF3333"/>
</svg>
