<svg width="64" height="48" viewBox="0 0 64 48" fill="none" xmlns="http://www.w3.org/2000/svg">
<path fill-rule="evenodd" clip-rule="evenodd" d="M9.0625 19.4721V17.938H15.4412V19.4721H13.1448V26.4889H11.3843V19.4721H9.0625Z" fill="#202020"/>
<path fill-rule="evenodd" clip-rule="evenodd" d="M16.5527 26.4889V17.938H22.1659V19.4469H18.3132V21.4464H21.4006V22.9301H18.3132V24.9799H22.1659V26.4889H16.5527Z" fill="#202020"/>
<path fill-rule="evenodd" clip-rule="evenodd" d="M25.9742 19.2927C25.0471 19.2927 24.5836 19.5945 24.5836 20.1981C24.5836 20.4664 24.6985 20.6718 24.9282 20.8142C25.1578 20.9569 25.6956 21.1622 26.5419 21.4304C27.3881 21.6988 27.9814 22.0025 28.3216 22.342C28.6617 22.6816 28.8319 23.2035 28.8319 23.9077C28.8319 24.8047 28.5554 25.4839 28.0027 25.9448C27.4497 26.4059 26.7269 26.6364 25.8339 26.6364C25.1706 26.6364 24.3583 26.5358 23.3972 26.3346L22.938 26.2465L23.1166 24.9011V24.901C24.2562 25.0519 25.1279 25.1275 25.7318 25.1275C26.6333 25.1275 27.0842 24.7587 27.0842 24.0208C27.0842 23.7527 26.98 23.5429 26.7717 23.3921C26.5631 23.2412 26.1485 23.0778 25.5278 22.9016C24.541 22.625 23.8458 22.2961 23.4419 21.9145C23.0378 21.5332 22.8359 21.0029 22.8359 20.3238C22.8359 19.4687 23.0994 18.8317 23.6269 18.4124C24.1541 17.9933 24.877 17.7837 25.7956 17.7837C26.4249 17.7837 27.2244 17.8676 28.194 18.0352L28.6533 18.1232L28.513 19.4939C27.3138 19.3598 26.4674 19.2927 25.9742 19.2927Z" fill="#202020"/>
<path fill-rule="evenodd" clip-rule="evenodd" d="M29.1562 19.4721V17.938H35.535V19.4721H33.2386V26.4889H31.4781V19.4721H29.1562Z" fill="#202020"/>
<path fill-rule="evenodd" clip-rule="evenodd" d="M38.1178 16.6124H36.3902L36.4551 8.02084L19.3488 2.59616L19.0959 2.51575L18.8434 2.59616L1.73704 8.02084L1.8407 21.7346C1.8407 36.1427 3.97319 38.3224 18.8434 45.2876L19.0959 45.401L19.3488 45.2876C31.8089 39.4513 35.3256 36.9749 36.1382 27.849L37.8726 27.849C37.5336 31.8093 36.699 34.7823 34.8196 37.3096C33.5382 39.0329 31.7502 40.568 29.193 42.1406C26.8042 43.6097 23.8263 45.0763 20.09 46.8263L20.0771 46.8324L20.064 46.8383L19.8112 46.9517L19.0953 47.2728L18.3797 46.9513L18.1272 46.8379L18.1146 46.8322L18.1021 46.8263C14.3658 45.0763 11.388 43.6097 8.99918 42.1406C6.44193 40.568 4.65404 39.0329 3.37256 37.3096C0.633338 33.6259 0.113388 28.9955 0.1131 21.741L0.00950179 8.0335L0 6.78213L1.20817 6.39899L18.3124 0.974996L18.5649 0.894585L19.0955 0.725586L19.6262 0.894358L19.8776 0.974315L36.984 6.39899L38.1921 6.78213L38.1826 8.0335L38.1178 16.6124Z" fill="#FF3333"/>
<path fill-rule="evenodd" clip-rule="evenodd" d="M36.3398 26.4889V17.938H41.8765V19.4469H38.1003V21.9619H41.1877V23.4709H38.1003V26.4889H36.3398Z" fill="#FF3333"/>
<path fill-rule="evenodd" clip-rule="evenodd" d="M44.6039 24.4673C44.8547 24.9074 45.3247 25.1275 46.0136 25.1275C46.7025 25.1275 47.1724 24.9074 47.4234 24.4673C47.6742 24.0272 47.7997 23.2895 47.7997 22.2541C47.7997 21.2188 47.6721 20.4665 47.4169 19.9969C47.1618 19.5275 46.694 19.2928 46.0136 19.2928C45.3332 19.2928 44.8656 19.5275 44.6104 19.9969C44.3552 20.4665 44.2276 21.2188 44.2276 22.2541C44.2276 23.2895 44.353 24.0272 44.6039 24.4673ZM48.8011 25.5739C48.2609 26.2825 47.3318 26.6365 46.0136 26.6365C44.6953 26.6365 43.7662 26.2825 43.2261 25.5739C42.6859 24.8656 42.416 23.7569 42.416 22.2478C42.416 20.7388 42.6859 19.6177 43.2261 18.884C43.7662 18.1505 44.6953 17.7837 46.0136 17.7837C47.3318 17.7837 48.2609 18.1505 48.8011 18.884C49.3411 19.6177 49.6112 20.7388 49.6112 22.2478C49.6112 23.7569 49.3411 24.8656 48.8011 25.5739Z" fill="#FF3333"/>
<path fill-rule="evenodd" clip-rule="evenodd" d="M55.3424 21.7608C55.5465 21.5092 55.6485 21.1782 55.6485 20.7674C55.6485 20.3568 55.54 20.0298 55.3232 19.7866C55.1063 19.5435 54.7938 19.4219 54.3856 19.4219H52.778V22.1381H54.411C54.8277 22.1381 55.1382 22.0123 55.3424 21.7608ZM52.778 23.6218V26.4889H51.0176V17.938H54.3856C56.4268 17.938 57.4473 18.877 57.4473 20.7548C57.4473 21.8698 57.0219 22.6913 56.1715 23.2195L57.4091 26.4889H55.4828L54.4748 23.6218H52.778Z" fill="#FF3333"/>
<path fill-rule="evenodd" clip-rule="evenodd" d="M57.6211 19.4721V17.938H63.9998V19.4721H61.7034V26.4889H59.9429V19.4721H57.6211Z" fill="#FF3333"/>
</svg>
