<svg width="45" height="55" viewBox="0 0 45 55" fill="none" xmlns="http://www.w3.org/2000/svg">
<path d="M44.1061 41.8133V41.8134C43.9534 45.0395 42.6177 48.0743 40.3444 50.3575C37.9103 52.8022 34.6722 54.1508 31.2289 54.1492C31.2289 54.1492 31.2288 54.1492 31.2288 54.1492L26.0691 54.1492C22.621 54.1492 19.3796 52.8007 16.9422 50.3526L1.47742 34.8208C0.0627359 33.3999 0.062736 31.0882 1.47742 29.6673C3.33906 27.7976 6.327 27.5855 8.43205 29.17C8.43234 29.1702 8.43263 29.1705 8.43293 29.1707L15.8553 34.6021L15.8553 12.4689C15.8553 9.93238 17.9097 7.86804 20.4354 7.86971M44.1061 41.8133L20.4353 8.01971M44.1061 41.8133L44.7162 28.8133L44.7164 28.8133V28.8063C44.7164 26.2726 42.6633 24.2071 40.1168 24.2071C39.3862 24.2071 38.6952 24.3788 38.0821 24.6897M44.1061 41.8133L38.1074 24.8454M20.4354 7.86971L20.4353 8.01971M20.4354 7.86971C20.4353 7.86971 20.4353 7.86971 20.4353 7.86971V8.01971M20.4354 7.86971C22.9818 7.86977 25.0349 9.93524 25.0349 12.4689V18.0613M20.4353 8.01971C22.8987 8.01971 24.8849 10.0178 24.8849 12.4689V18.1366C24.9344 18.1106 24.9844 18.0855 25.0349 18.0613M25.0349 18.0613C25.6298 17.7766 26.2942 17.6182 26.9956 17.6181M25.0349 18.0613V18.2283C25.6265 17.9331 26.2916 17.7681 26.9958 17.7681M26.9956 17.6181C26.9957 17.6181 26.9957 17.6181 26.9958 17.6181V17.7681M26.9956 17.6181C29.257 17.6164 31.1328 19.2504 31.5215 21.3934M26.9956 17.6181L26.9958 17.7681M26.9958 17.7681L31.5215 21.3934M31.5215 21.3934C31.4745 21.4169 31.428 21.4412 31.382 21.4662L31.5215 21.3934ZM31.5215 21.3934C31.5308 21.4449 31.5393 21.4967 31.5469 21.5487M31.5215 21.3934C32.1356 21.0862 32.8265 20.9142 33.5559 20.9127H33.5562C35.8184 20.9127 37.6958 22.5441 38.0821 24.6897M31.5469 21.5487C31.4995 21.5731 31.4525 21.5983 31.406 21.6243L31.5469 21.5487ZM31.5469 21.5487C32.1511 21.2385 32.8339 21.0642 33.5562 21.0627C35.7611 21.0627 37.5883 22.6649 37.9427 24.7636C37.9887 24.7381 38.0352 24.7135 38.0821 24.6897M38.0821 24.6897C38.0914 24.7413 38.0998 24.7932 38.1074 24.8454M44.5664 28.8063L43.9563 41.8063C43.8054 44.9954 42.4851 47.9949 40.2381 50.2517C37.832 52.6682 34.6322 54.0008 31.2289 53.9992L44.5664 28.8063ZM44.5664 28.8063C44.5664 26.3552 42.5802 24.3571 40.1168 24.3571C39.3931 24.3571 38.7102 24.5312 38.1074 24.8454M44.5664 28.8063L38.1074 24.8454M6.87634 31.286L6.87465 31.2847C5.79252 30.4696 4.27411 30.578 3.33011 31.5261C2.93571 31.9222 2.93571 32.5656 3.33011 32.9617L18.7948 48.4936C20.7382 50.4454 23.3209 51.52 26.0691 51.52L31.2289 51.5199C33.9738 51.5199 36.5516 50.4471 38.4917 48.4986C40.3039 46.6785 41.3677 44.2593 41.4908 41.6903L42.0991 28.7486C42.0924 27.7223 41.2186 26.8391 40.1362 26.8361C39.5919 26.8361 39.1023 27.0413 38.7324 27.4128C38.3619 27.7849 38.1577 28.2806 38.1577 28.8077L38.1577 28.9493C38.1577 29.6738 37.5714 30.2637 36.8485 30.2639C36.8484 30.2639 36.8482 30.2639 36.8481 30.2639V30.1139C36.2657 30.1155 35.7804 29.6821 35.6999 29.1174L6.87634 31.286ZM6.87634 31.286L16.3939 38.2488L6.87634 31.286ZM17.7596 38.3586L17.7592 38.3588C17.3189 38.5817 16.7927 38.5411 16.394 38.2489L17.7596 38.3586ZM17.7596 38.3586C18.1971 38.1352 18.4745 37.6816 18.4744 37.1872V12.4688C18.4744 11.3826 19.3549 10.4973 20.4548 10.4956C20.9956 10.4971 21.486 10.7173 21.8412 11.0741C22.1964 11.4308 22.4158 11.9235 22.4159 12.4689L22.4159 28.9513C22.4159 29.676 23.0024 30.2659 23.7255 30.2659L23.7263 30.2659M17.7596 38.3586L23.7263 30.2659M23.7263 30.2659C24.087 30.264 24.4149 30.1172 24.6519 29.8792C24.8889 29.6411 25.0351 29.3119 25.0351 28.9481V22.2174C25.0351 21.1311 25.914 20.2474 27.0156 20.2474C28.0933 20.2474 28.9764 21.1334 28.9764 22.2174V28.9513C28.9764 29.676 29.5629 30.2659 30.286 30.2659L30.2868 30.2659M23.7263 30.2659L30.2868 30.2659M30.2868 30.2659C30.6475 30.264 30.9754 30.1172 31.2124 29.8792M30.2868 30.2659L31.2124 29.8792M31.2124 29.8792C31.4494 29.6411 31.5956 29.3119 31.5956 28.9481M31.2124 29.8792L31.5956 28.9481M31.5956 28.9481V25.5119M31.5956 28.9481V25.5119M31.5956 25.5119C31.5956 24.4255 32.4746 23.5418 33.5761 23.5418M31.5956 25.5119L33.5761 23.5418M33.5761 23.5418C34.6539 23.5418 35.537 24.4278 35.537 25.5118M33.5761 23.5418L35.537 25.5118M35.537 25.5118L35.537 28.6041M35.537 25.5118L35.537 28.6041M35.537 28.6041L35.537 28.912M35.537 28.6041L35.537 28.912M35.537 28.912V28.922V28.912ZM16.0053 34.7119V34.8978L15.8553 34.788L16.0053 34.7119ZM10.4851 15.3735L10.4854 15.374C10.5537 15.5541 10.6574 15.7103 10.785 15.8384C11.1369 16.1919 11.6777 16.3259 12.174 16.1399L12.175 16.1396C12.851 15.8811 13.191 15.1227 12.9377 14.4447L12.9376 14.4444C11.8312 11.4992 12.5387 8.16632 14.7404 5.95497C17.8472 2.83469 22.9019 2.83462 26.0088 5.95497C28.2106 8.16632 28.918 11.4992 27.8116 14.4444C27.555 15.122 27.8943 15.8844 28.573 16.138C29.251 16.3949 30.0067 16.0522 30.2621 15.3718C31.7309 11.4645 30.7898 7.03716 27.8614 4.096C23.7336 -0.0497071 17.0155 -0.0497078 12.8877 4.096C9.95921 7.03718 9.01812 11.4644 10.4851 15.3735Z" fill="#FF3333" stroke="#FF3333" stroke-width="0.3"/>
</svg>
