<svg width="56" height="56" viewBox="0 0 56 56" fill="none" xmlns="http://www.w3.org/2000/svg">
<path d="M5.1208 55.5196C5.7614 56.1603 6.80024 56.1604 7.44096 55.5196L29.1255 33.835L29.4671 36.6991C29.5466 37.3652 30.0236 37.9159 30.6716 38.0896C31.3181 38.2628 32.0073 38.0258 32.4099 37.4877L37.8895 30.1633L46.2971 33.7666C46.9142 34.031 47.6291 33.8931 48.1035 33.4188C48.5779 32.9445 48.7157 32.2291 48.4514 31.6124L44.8481 23.2048L52.1726 17.7253C52.7097 17.3234 52.9481 16.6349 52.7746 15.987C52.6009 15.3389 52.0503 14.8619 51.3841 14.7825L42.3012 13.6993L41.2179 4.61641C41.1384 3.95021 40.6614 3.39962 40.0134 3.22593C39.3653 3.05225 38.677 3.29068 38.2751 3.82782L32.7956 11.1522L24.388 7.54884C23.771 7.28449 23.0558 7.42241 22.5815 7.89676C22.1072 8.37112 21.9694 9.08654 22.2336 9.70308L25.837 18.1107L18.5125 23.5902C17.9753 23.9921 17.7369 24.6806 17.9105 25.3285C18.0842 25.9766 18.6348 26.4535 19.301 26.533L22.165 26.8745L0.480372 48.5591C-0.159905 49.1993 -0.160343 50.2386 0.480372 50.8793L5.1208 55.5196ZM28.8361 19.9647C29.4427 19.511 29.6597 18.701 29.3613 18.0047L26.8652 12.1804L32.6895 14.6766C33.3855 14.9749 34.1957 14.7579 34.6495 14.1513L38.4453 9.07746L39.1957 15.3695C39.2854 16.1216 39.8783 16.7146 40.6305 16.8043L46.9224 17.5547L41.8485 21.3507C41.2419 21.8044 41.0249 22.6144 41.3233 23.3107L43.8194 29.135L37.9951 26.6388C37.2988 26.3403 36.4888 26.5575 36.0351 27.164L32.2393 32.2378L31.489 25.9458C31.3993 25.1937 30.8064 24.6007 30.0542 24.5111L23.7622 23.7606L28.8361 19.9647ZM26.3108 27.369L28.3837 27.6162L28.6309 29.6892L6.28082 52.0394L3.96056 49.7192L26.3108 27.369Z" fill="#FF3333"/>
<path d="M48.1015 5.57624L45.7813 7.89642C45.1406 8.53713 45.1406 9.57587 45.7813 10.2166C46.4219 10.8573 47.4608 10.8573 48.1015 10.2166L50.4217 7.89642C51.0624 7.2557 51.0624 6.21696 50.4217 5.57624C49.7811 4.93552 48.7422 4.93552 48.1015 5.57624Z" fill="#FF3333"/>
<path d="M29.8228 0.0562353C28.9476 0.290735 28.4283 1.19034 28.6628 2.06556L29.5121 5.23503C29.7459 6.10784 30.644 6.63033 31.5214 6.39506C32.3967 6.16056 32.916 5.26095 32.6815 4.38574L31.8322 1.21627C31.5976 0.341048 30.6981 -0.178046 29.8228 0.0562353Z" fill="#FF3333"/>
<path d="M39.1656 34.92C38.2903 35.1545 37.771 36.0542 38.0055 36.9294L38.8548 40.0988C39.0891 40.973 39.9882 41.4939 40.8642 41.2589C41.7395 41.0244 42.2588 40.1248 42.0243 39.2495L41.175 36.0801C40.9404 35.2049 40.0409 34.6857 39.1656 34.92Z" fill="#FF3333"/>
<path d="M16.7502 13.9777C15.8762 13.7432 14.9754 14.2625 14.7409 15.1377C14.5064 16.0129 15.0258 16.9126 15.901 17.1471L19.0705 17.9962C19.9478 18.2314 20.8459 17.7091 21.0798 16.8361C21.3143 15.9609 20.7949 15.0613 19.9197 14.8268L16.7502 13.9777Z" fill="#FF3333"/>
<path d="M54.7831 24.1683L51.6136 23.319C50.7389 23.0846 49.8388 23.6038 49.6042 24.479C49.3697 25.3542 49.889 26.2538 50.7642 26.4883L53.9337 27.3376C54.8125 27.5732 55.7096 27.0491 55.9431 26.1776C56.1776 25.3024 55.6582 24.4028 54.7831 24.1683Z" fill="#FF3333"/>
</svg>
