<svg width="129" height="45" viewBox="0 0 129 45" fill="none" xmlns="http://www.w3.org/2000/svg">
<path fill-rule="evenodd" clip-rule="evenodd" d="M52.7631 26.2462C53.273 27.1438 54.2442 27.6047 55.6768 27.6047C57.1093 27.6047 58.0806 27.1438 58.5905 26.2462C59.1003 25.3486 59.3674 23.8202 59.3674 21.6854C59.3674 19.5505 59.1003 17.9979 58.5662 17.0275C58.032 16.0571 57.0608 15.5719 55.6768 15.5719C54.2685 15.5719 53.2973 16.0571 52.7874 17.0275C52.2532 17.9979 51.9861 19.5505 51.9861 21.6854C51.9861 23.8202 52.2532 25.3243 52.7631 26.2462ZM59.853 30.055C59.8045 30.055 59.7559 30.0307 59.7074 30.0307C59.586 30.0307 59.3432 30.0792 59.2703 30.1035C58.2748 30.4916 57.0851 30.71 55.6525 30.71C52.9331 30.71 51.0149 29.9822 49.898 28.5266C48.7811 27.071 48.2227 24.7663 48.2227 21.6611C48.2227 18.5558 48.7811 16.2269 49.898 14.7228C51.0149 13.2187 52.9331 12.4424 55.6525 12.4424C58.3719 12.4424 60.2901 13.1944 61.407 14.7228C62.5239 16.2269 63.0824 18.5558 63.0824 21.6611C63.0824 23.9172 62.8638 25.5427 62.2811 26.9255C62.2568 26.974 62.2325 27.0225 62.2325 27.071C62.1111 27.9929 63.3737 28.6479 63.6165 29.0603L63.9079 29.3272C64.2235 29.594 64.2478 30.055 63.9807 30.3703L62.8153 31.7046C62.5482 32.02 62.0869 32.0443 61.7712 31.7774L59.853 30.055Z" fill="#202020"/>
<path fill-rule="evenodd" clip-rule="evenodd" d="M73.1107 15.4275H73.0864C72.7465 15.4275 72.4308 15.6701 72.358 16.0097L70.7069 23.8456H75.4659L73.8148 16.0097C73.7663 15.6701 73.4506 15.4275 73.1107 15.4275ZM75.6116 26.9751H70.5855C70.2699 26.9751 70.0028 27.1934 69.9542 27.5088L69.4929 29.6679C69.42 29.9833 69.1529 30.2017 68.8616 30.2017H66.6763C66.2636 30.2017 65.9479 29.8135 66.045 29.3768L69.5172 13.6322C69.6628 12.953 70.2699 12.4678 70.9497 12.4678H75.2716C75.9515 12.4678 76.5585 12.953 76.7042 13.6322L80.1763 29.3768C80.2734 29.7892 79.9578 30.2017 79.545 30.2017H77.3598C77.0441 30.2017 76.777 29.9833 76.7285 29.6679L76.2672 27.5088C76.1943 27.1934 75.9272 26.9751 75.6116 26.9751Z" fill="#202020"/>
<path fill-rule="evenodd" clip-rule="evenodd" d="M90.6664 21.1528C91.4919 21.1528 92.1232 20.8859 92.5602 20.3765C92.9973 19.867 93.2158 19.1635 93.2158 18.3144C93.2158 17.441 92.9973 16.7617 92.536 16.2766C92.0746 15.7914 91.4433 15.5245 90.6178 15.5245H87.2914V21.1528H90.6664ZM83.625 13.1956C83.625 12.7832 83.9649 12.4678 84.3777 12.4678H90.6178C94.8426 12.4678 96.955 14.4086 96.955 18.3144C96.955 20.425 96.2266 22.0261 94.7698 23.1178C94.5027 23.3119 94.4056 23.6515 94.527 23.9669L96.518 29.2313C96.6879 29.7165 96.348 30.2259 95.8138 30.2259H93.4343C93.1187 30.2259 92.8273 30.0318 92.7302 29.7407L90.982 24.7917C90.8849 24.5006 90.5935 24.3065 90.2779 24.3065H88.0441C87.6313 24.3065 87.2914 24.6462 87.2914 25.0343V29.4981C87.2914 29.9105 86.9514 30.2259 86.5387 30.2259H84.3777C83.9649 30.2259 83.625 29.8863 83.625 29.4981V13.1956Z" fill="#202020"/>
<path fill-rule="evenodd" clip-rule="evenodd" d="M104.118 15.8907V20.0392H109.702C110.115 20.0392 110.455 20.3788 110.455 20.7912V22.3681C110.455 22.7805 110.115 23.1201 109.702 23.1201H104.118V27.3656H111.281C111.693 27.3656 112.033 27.7052 112.033 28.1177V29.7431C112.033 30.1555 111.693 30.4951 111.281 30.4951H101.253C100.84 30.4951 100.5 30.1555 100.5 29.7431V13.5133C100.5 13.1009 100.84 12.7612 101.253 12.7612H111.281C111.693 12.7612 112.033 13.1009 112.033 13.5133V15.1387C112.033 15.5511 111.693 15.8907 111.281 15.8907H104.118Z" fill="#202020"/>
<path fill-rule="evenodd" clip-rule="evenodd" d="M120.919 15.7463H120.895C120.555 15.7463 120.239 15.9889 120.166 16.3285L118.515 24.1644H123.274L121.623 16.3285C121.575 15.9889 121.283 15.7463 120.919 15.7463ZM123.371 27.294H118.442C118.103 27.294 117.811 27.5365 117.738 27.8762L117.301 29.9383C117.228 30.2779 116.937 30.5205 116.597 30.5205H114.533C114.072 30.5205 113.732 30.0838 113.829 29.6229L117.301 13.9511C117.447 13.2718 118.054 12.7866 118.734 12.7866H123.08C123.76 12.7866 124.367 13.2718 124.513 13.9511L127.985 29.6229C128.082 30.0838 127.742 30.5205 127.281 30.5205H125.217C124.877 30.5205 124.585 30.2779 124.513 29.9383L124.076 27.8762C124.003 27.5365 123.711 27.294 123.371 27.294Z" fill="#202020"/>
<path fill-rule="evenodd" clip-rule="evenodd" d="M20.5 0C14.4448 0 6.97924 0.798816 2.86951 7.0199C0 11.3529 0 16.5331 0 22.4879C0 28.4427 0 33.6229 2.86951 37.9801C6.97924 44.2012 14.4448 45 20.5 45C26.5552 45 34.0451 44.2012 38.1305 37.9801C41 33.6229 41 28.4669 41 22.4879C41 16.5089 41 11.3529 38.1305 6.9957C34.0451 0.798816 26.5795 0 20.5 0ZM20.5 3.65519C25.9472 3.65519 31.9294 4.28456 35.0421 9.00484C37.328 12.4713 37.328 16.872 37.328 22.4879C37.328 28.1038 37.328 32.5336 35.0421 35.971C31.9294 40.6912 25.9472 41.3206 20.5 41.3206C15.0528 41.3206 9.07058 40.6912 5.95789 35.971C3.672 32.5336 3.672 28.1038 3.672 22.4879C3.672 16.872 3.672 12.4422 5.95789 9.00484C9.07058 4.28456 15.0771 3.65519 20.5 3.65519ZM26.6524 21.4228C26.6524 18.4454 26.6767 16.3152 25.7527 15.3954C24.9988 14.6692 23.2722 14.3061 20.4757 14.3061C17.7034 14.3061 15.9769 14.645 15.2473 15.3712C13.7747 16.837 13.7747 28.1388 15.2473 29.6046C15.9769 30.3308 17.7034 30.6697 20.4757 30.6697C23.2722 30.6697 24.9988 30.3066 25.7527 29.5804C26.6767 28.6848 26.6767 26.5304 26.6524 23.553C26.6524 23.2141 26.6524 22.851 26.6524 22.4879C26.6524 22.1248 26.6524 21.7617 26.6524 21.4228ZM33.2426 31.6138C33.8505 29.2415 33.8505 26.2883 33.8505 22.5121C33.8505 11.8128 33.7533 6.87466 20.5243 6.87466C7.29537 6.87466 7.1981 11.837 7.1981 22.5121C7.1981 24.8601 7.1981 26.9419 7.34401 28.7332C7.879 35.1237 10.1892 38.1495 20.5243 38.1495C23.3938 38.1495 25.6554 37.9075 27.4306 37.4476C28.4763 37.1571 28.8167 35.8741 28.0629 35.1237L27.8683 34.9301C27.2117 34.2765 26.2633 33.6229 25.3879 33.865C24.0991 34.2281 22.4941 34.4217 20.5 34.4217C16.6091 34.4217 14.2017 33.7439 12.6939 32.2431C10.7242 30.2582 10.7242 27.7165 10.7485 23.9887C10.7485 23.6014 10.7485 23.1899 10.7485 22.7784C10.7485 22.3669 10.7485 21.9554 10.7485 21.568C10.6999 17.7676 10.6999 14.8386 12.6696 12.8295C14.1773 11.3045 16.5848 10.6509 20.4757 10.6509C24.3909 10.6509 26.7983 11.3287 28.306 12.8537C30.3001 14.8628 30.3001 17.8644 30.2758 21.6407C30.2758 22.0038 30.2758 22.3427 30.2758 22.73C30.2758 23.0931 30.2758 23.4562 30.2758 23.8193C30.2758 26.0705 30.3001 28.0312 29.8867 29.6772C29.6922 30.5003 29.911 31.3475 30.4947 31.9285L30.9081 32.34C31.6619 33.0904 32.9751 32.6305 33.2426 31.6138Z" fill="#FF3333"/>
</svg>
