<svg width="19" height="20" viewBox="0 0 19 20" fill="none" xmlns="http://www.w3.org/2000/svg">
<path fill-rule="evenodd" clip-rule="evenodd" d="M9.07717 0C6.39602 0 3.09033 0.35503 1.27059 3.11996C0 5.04572 0 7.34804 0 9.99462C0 12.6412 0 14.9435 1.27059 16.88C3.09033 19.645 6.39602 20 9.07717 20C11.7583 20 15.0748 19.645 16.8838 16.88C18.1543 14.9435 18.1543 12.652 18.1543 9.99462C18.1543 7.33728 18.1543 5.04572 16.8838 3.1092C15.0748 0.35503 11.7691 0 9.07717 0ZM9.07717 1.62453C11.4891 1.62453 14.138 1.90425 15.5163 4.00215C16.5284 5.5428 16.5284 7.49866 16.5284 9.99462C16.5284 12.4906 16.5284 14.4594 15.5163 15.9871C14.138 18.085 11.4891 18.3647 9.07717 18.3647C6.66521 18.3647 4.01635 18.085 2.63809 15.9871C1.62592 14.4594 1.62592 12.4906 1.62592 9.99462C1.62592 7.49866 1.62592 5.52986 2.63809 4.00215C4.01635 1.90425 6.67598 1.62453 9.07717 1.62453ZM11.8014 9.52125C11.8014 8.19796 11.8122 7.25121 11.403 6.84239C11.0692 6.51963 10.3047 6.35826 9.06641 6.35826C7.83889 6.35826 7.07438 6.50888 6.75135 6.83163C6.0993 7.48312 6.0993 12.5061 6.75135 13.1576C7.07438 13.4804 7.83889 13.631 9.06641 13.631C10.3047 13.631 11.0692 13.4696 11.403 13.1469C11.8122 12.7488 11.8122 11.7913 11.8014 10.468C11.8014 10.3174 11.8014 10.156 11.8014 9.99462C11.8014 9.83324 11.8014 9.67187 11.8014 9.52125ZM14.7194 14.0506C14.9886 12.9962 14.9886 11.6837 14.9886 10.0054C14.9886 5.25013 14.9456 3.05541 9.08794 3.05541C3.23031 3.05541 3.18724 5.26089 3.18724 10.0054C3.18724 11.049 3.18724 11.9742 3.25185 12.7703C3.48874 15.6105 4.51167 16.9554 9.08794 16.9554C10.3585 16.9554 11.3599 16.8478 12.146 16.6434C12.609 16.5143 12.7597 15.9441 12.4259 15.6105L12.3398 15.5245C12.0491 15.234 11.6291 14.9435 11.2415 15.0511C10.6708 15.2125 9.96013 15.2985 9.07717 15.2985C7.35434 15.2985 6.28834 14.9973 5.62074 14.3303C4.74856 13.4481 4.74856 12.3185 4.75933 10.6616C4.75933 10.4895 4.75933 10.3066 4.75933 10.1237C4.75933 9.94083 4.75933 9.75793 4.75933 9.5858C4.73779 7.89672 4.73779 6.59494 5.60997 5.70199C6.27757 5.02421 7.34357 4.73373 9.06641 4.73373C10.8 4.73373 11.866 5.03497 12.5336 5.71275C13.4166 6.6057 13.4166 7.93975 13.4058 9.61808C13.4058 9.77945 13.4058 9.93007 13.4058 10.1022C13.4058 10.2636 13.4058 10.425 13.4058 10.5863C13.4058 11.5869 13.4166 12.4583 13.2335 13.1899C13.1474 13.5557 13.2443 13.9322 13.5027 14.1904L13.6858 14.3733C14.0195 14.7068 14.601 14.5024 14.7194 14.0506Z" fill="#444444"/>
</svg>
