<svg width="17" height="20" viewBox="0 0 17 20" fill="none" xmlns="http://www.w3.org/2000/svg">
<path fill-rule="evenodd" clip-rule="evenodd" d="M8.84881 0.107164L17 2.60232L16.9497 9.0297C16.9496 10.0082 16.9268 10.8756 16.8578 11.6541C16.7493 12.8772 16.5269 13.8811 16.0997 14.7522C15.9326 15.0931 15.7341 15.4137 15.4988 15.7191C15.2735 16.0116 15.013 16.2915 14.7101 16.5647C14.2942 16.9399 13.7983 17.3026 13.2038 17.6683C13.1353 17.7105 13.0655 17.7526 12.9943 17.7949L12.9305 17.8326C11.8781 18.4512 10.5724 19.0712 8.94242 19.8082L8.93668 19.8108L8.49967 20L8.10066 19.827L8.09721 19.8255L8.06873 19.8131L8.06314 19.8107L8.05758 19.8082C6.47245 19.0915 5.194 18.4854 4.15696 17.8836C4.10595 17.854 4.05552 17.8244 4.00567 17.7949C3.97719 17.778 3.94892 17.761 3.92087 17.7441C3.38833 17.4236 2.93238 17.1061 2.54049 16.7812C2.12794 16.4393 1.78637 16.0893 1.50116 15.7191C1.26866 15.4173 1.0721 15.1007 0.906193 14.7643C0.528323 13.9981 0.309572 13.1293 0.187966 12.0987C0.170862 11.9538 0.155679 11.8056 0.142245 11.6541C0.0732164 10.8756 0.0503831 10.0082 0.0503429 9.0297L0 2.60232L8.15119 0.107164L8.16901 0.101687L8.18182 0.0976878L8.50026 0L8.84881 0.107164ZM8.40912 17.5249L8.49929 17.5647L8.58946 17.5249C13.0626 15.4619 14.3252 14.5866 14.6169 11.3608H14.618C14.6744 10.7368 14.6945 10.025 14.6945 9.19953L14.7084 7.38895H14.7073L14.7306 4.35208L8.49929 2.40636L2.26794 4.35207L2.29125 7.38895H2.29016L2.30406 9.19953C2.30406 10.025 2.32417 10.7368 2.3806 11.3608H2.38169C2.67343 14.5866 3.93594 15.4619 8.40912 17.5249Z" fill="#444444"/>
</svg>
